HIERARCHY
ROOT Hips
{
	OFFSET 0.000000 0.000000 0.000000
	CHANNELS 6 Xposition Yposition Zposition Zrotation Yrotation Xrotation 
	JOINT LHipJoint
	{
		OFFSET 0.000000 0.000000 0.000000
		CHANNELS 3 Zrotation Yrotation Xrotation
		JOINT LeftUpLeg
		{
			OFFSET 1.363060 -1.794630 0.839290
			CHANNELS 3 Zrotation Yrotation Xrotation
			JOINT LeftLeg
			{
				OFFSET 2.448110 -6.726130 0.000000
				CHANNELS 3 Zrotation Yrotation Xrotation
				JOINT LeftFoot
				{
					OFFSET 2.562200 -7.039590 0.000000
					CHANNELS 3 Zrotation Yrotation Xrotation
					JOINT LeftToeBase
					{
						OFFSET 0.157640 -0.433110 2.322550
						CHANNELS 3 Zrotation Yrotation Xrotation
						End Site
						{
							OFFSET 0.000000 0.000000 0.000000
						}
					}
				}
			}
		}
	}
	JOINT RHipJoint
	{
		OFFSET 0.000000 0.000000 0.000000
		CHANNELS 3 Zrotation Yrotation Xrotation
		JOINT RightUpLeg
		{
			OFFSET -1.305520 -1.794630 0.839290
			CHANNELS 3 Zrotation Yrotation Xrotation
			JOINT RightLeg
			{
				OFFSET -2.542530 -6.985550 0.000000
				CHANNELS 3 Zrotation Yrotation Xrotation
				JOINT RightFoot
				{
					OFFSET -2.568260 -7.056230 0.000000
					CHANNELS 3 Zrotation Yrotation Xrotation
					JOINT RightToeBase
					{
						OFFSET -0.164730 -0.452590 2.363150
						CHANNELS 3 Zrotation Yrotation Xrotation
						End Site
						{
							OFFSET 0.000000 0.000000 0.000000
						}
					}
				}
			}
		}
	}
	JOINT LowerBack
	{
		OFFSET 0.000000 0.000000 0.000000
		CHANNELS 3 Zrotation Yrotation Xrotation
		JOINT Spine
		{
			OFFSET 0.028270 2.035590 -0.193380
			CHANNELS 3 Zrotation Yrotation Xrotation
			JOINT Spine1
			{
				OFFSET 0.056720 2.048850 -0.042750
				CHANNELS 3 Zrotation Yrotation Xrotation
				JOINT Neck
				{
					OFFSET 0.000000 0.000000 0.000000
					CHANNELS 3 Zrotation Yrotation Xrotation
					JOINT Neck1
					{
						OFFSET -0.054170 1.746240 0.172020
						CHANNELS 3 Zrotation Yrotation Xrotation
						JOINT Head
						{
							OFFSET 0.104070 1.761360 -0.123970
							CHANNELS 3 Zrotation Yrotation Xrotation
							End Site
							{
								OFFSET 0.000000 0.000000 0.000000
							}
						}
					}
				}
				JOINT LeftShoulder
				{
					OFFSET 0.000000 0.000000 0.000000
					CHANNELS 3 Zrotation Yrotation Xrotation
					JOINT LeftArm
					{
						OFFSET 3.362410 1.200890 -0.311210
						CHANNELS 3 Zrotation Yrotation Xrotation
						JOINT LeftForeArm
						{
							OFFSET 4.983000 -0.000000 -0.000000
							CHANNELS 3 Zrotation Yrotation Xrotation
							JOINT LeftHand
							{
								OFFSET 3.483560 -0.000000 -0.000000
								CHANNELS 3 Zrotation Yrotation Xrotation
								JOINT LeftFingerBase
								{
									OFFSET 0.000000 0.000000 0.000000
									CHANNELS 3 Zrotation Yrotation Xrotation
									JOINT LeftHandIndex1
									{
										OFFSET 0.715260 -0.000000 -0.000000
										CHANNELS 3 Zrotation Yrotation Xrotation
										End Site
										{
											OFFSET 0.000000 0.000000 0.000000
										}
									}
								}
								JOINT LThumb
								{
									OFFSET 0.000000 0.000000 0.000000
									CHANNELS 3 Zrotation Yrotation Xrotation
									End Site
									{
										OFFSET 0.000000 0.000000 0.000000
									}
								}
							}
						}
					}
				}
				JOINT RightShoulder
				{
					OFFSET 0.000000 0.000000 0.000000
					CHANNELS 3 Zrotation Yrotation Xrotation
					JOINT RightArm
					{
						OFFSET -3.136600 1.374050 -0.404650
						CHANNELS 3 Zrotation Yrotation Xrotation
						JOINT RightForeArm
						{
							OFFSET -5.241900 -0.000000 -0.000000
							CHANNELS 3 Zrotation Yrotation Xrotation
							JOINT RightHand
							{
								OFFSET -3.444170 -0.000000 -0.000000
								CHANNELS 3 Zrotation Yrotation Xrotation
								JOINT RightFingerBase
								{
									OFFSET 0.000000 0.000000 0.000000
									CHANNELS 3 Zrotation Yrotation Xrotation
									JOINT RightHandIndex1
									{
										OFFSET -0.622530 -0.000000 -0.000000
										CHANNELS 3 Zrotation Yrotation Xrotation
										End Site
										{
											OFFSET 0.000000 0.000000 0.000000
										}
									}
								}
								JOINT RThumb
								{
									OFFSET 0.000000 0.000000 0.000000
									CHANNELS 3 Zrotation Yrotation Xrotation
									End Site
									{
										OFFSET 0.000000 0.000000 0.000000
									}
								}
							}
						}
					}
				}
			}
		}
	}
}
MOTION
Frames: 8
Frame Time: 0.008333
2.420613 16.841923 7.745038 7.233886 5.667272 15.797773 -7.369915 2.047456 5.170444 -18.821148 -8.072075 -36.235891 -3.561853 0.253525 19.914994 -0.266787 -1.990154 -0.065188 0.103700 0.000000 -25.780000 12.775111 -4.131464 2.393112 4.093667 -1.037691 -8.574311 0.307958 -2.816182 41.351277 0.907659 29.090851 16.478667 11.190600 0.000000 -31.593000 -7.136355 2.580331 -9.404465 -2.820062 3.025037 -4.701770 -7.313080 2.957294 0.978645 10.101465 -1.820107 -8.588826 -3.999460 -0.308411 -0.309737 0.000000 0.000000 0.000000 -3.866529 28.541006 1.336661 -55.535045 12.706867 -17.752671 -2.892770 -42.769819 0.014978 12.043180 0.371922 0.047900 -0.155262 -0.068205 0.000000 0.000000 0.000000 0.000000 0.000000 0.000000 0.000000 17.997212 8.178772 -1.562428 81.401292 21.301985 15.564730 1.994339 45.687513 0.000189 -1.736223 8.988619 -0.143924 0.046631 -0.347804 0.000000 0.000000 0.000000 0.000000 0.000000 0.000000 0.000000 
2.444372 16.839661 7.881058 7.653598 5.337684 15.603010 -7.289002 2.109247 5.109387 -19.450635 -8.078289 -35.582047 -3.579244 0.283038 20.488299 -0.193652 -1.676788 -0.858201 0.138600 -0.000000 -25.327100 12.949732 -4.056652 2.254229 3.381666 -1.700303 -9.821437 0.050831 -2.951611 43.883638 0.738312 27.948807 18.157660 11.631700 -0.000000 -41.900600 -7.399046 2.494107 -9.219917 -2.860506 2.971782 -4.667921 -7.285831 2.903675 0.956481 10.013587 -1.747471 -8.592729 -4.027948 -0.309981 -0.316259 0.000000 0.000000 0.000000 -3.922420 28.380490 1.343226 -55.297868 11.876727 -17.697511 -2.929683 -42.197049 0.014616 12.187869 0.380138 0.049082 -0.152974 -0.065891 0.000000 0.000000 0.000000 0.000000 0.000000 0.000000 0.000000 18.052939 8.174160 -1.549328 81.594404 21.017729 15.572449 1.997313 45.027970 0.000140 -1.758184 9.063763 -0.146867 0.046567 -0.344063 0.000000 0.000000 0.000000 0.000000 0.000000 0.000000 0.000000 
2.469662 16.838633 8.012247 8.038455 4.992809 15.383667 -7.223615 2.154666 5.043551 -20.019731 -8.086668 -34.863610 -3.592825 0.300818 20.973163 -0.114685 -1.344407 -1.679906 0.165100 -0.000001 -24.972000 13.093823 -3.964242 2.094900 2.727827 -2.358369 -11.095665 -0.185400 -3.089041 46.429221 0.580686 26.267768 19.324400 11.516700 0.000000 -49.965901 -7.600103 2.419687 -8.996629 -2.885716 2.922295 -4.625988 -7.249028 2.854337 0.934827 9.899090 -1.667088 -8.598153 -4.052935 -0.311143 -0.323205 0.000000 0.000000 0.000000 -3.998885 28.210090 1.351715 -55.150968 10.964797 -17.657335 -2.964738 -41.612273 0.014079 12.327338 0.392232 0.050564 -0.150506 -0.062899 0.000000 0.000000 0.000000 0.000000 0.000000 0.000000 0.000000 18.056751 8.170418 -1.532961 81.736685 20.713486 15.546489 2.000006 44.364497 0.000169 -1.755134 9.109342 -0.147314 0.046119 -0.339483 0.000000 0.000000 0.000000 0.000000 0.000000 0.000000 0.000000 
2.496600 16.838955 8.139252 8.379677 4.630987 15.144767 -7.177808 2.186110 4.970533 -20.524807 -8.072778 -34.103336 -3.600832 0.310018 21.380895 -0.032902 -1.002712 -2.487120 0.181700 0.000000 -24.707200 13.206646 -3.858119 1.924768 2.141739 -2.980376 -12.385732 -0.406119 -3.229741 48.953594 0.431490 24.064289 19.965285 10.876101 -0.000000 -56.204200 -7.735193 2.356596 -8.745755 -2.895589 2.875702 -4.578008 -7.205687 2.808330 0.914620 9.767554 -1.586098 -8.604854 -4.075288 -0.312009 -0.330353 0.000000 0.000000 0.000000 -4.091417 28.027420 1.360889 -55.091662 9.993800 -17.633894 -2.996078 -41.038776 0.013380 12.462811 0.407457 0.052444 -0.147935 -0.059275 0.000000 0.000000 0.000000 0.000000 0.000000 0.000000 0.000000 18.024703 8.161406 -1.511802 81.825559 20.390152 15.489446 2.003467 43.698708 0.000283 -1.727411 9.124419 -0.145164 0.045351 -0.334102 0.000000 0.000000 0.000000 0.000000 0.000000 0.000000 0.000000 
2.525078 16.840649 8.262681 8.674516 4.251726 14.892385 -7.153059 2.206957 4.888970 -20.968732 -8.015710 -33.323382 -3.602728 0.313328 21.721523 0.048768 -0.659574 -3.244879 0.188900 -0.000000 -24.525100 13.290028 -3.741409 1.751916 1.625506 -3.547284 -13.688363 -0.613995 -3.374209 51.433033 0.288415 21.412892 20.043083 9.785000 -0.000000 -60.502400 -7.806402 2.302551 -8.478312 -2.891253 2.830179 -4.526001 -7.158722 2.763725 0.896716 9.628887 -1.511255 -8.612620 -4.095951 -0.312691 -0.337539 0.000000 0.000000 0.000000 -4.194933 27.830036 1.369704 -55.113449 8.984342 -17.623909 -3.022236 -40.496704 0.012538 12.596024 0.424342 0.054323 -0.145323 -0.055092 0.000000 0.000000 0.000000 0.000000 0.000000 0.000000 0.000000 17.973798 8.140846 -1.484754 81.860257 20.048534 15.401807 2.008368 43.032616 0.000466 -1.679020 9.110804 -0.140816 0.044355 -0.328011 0.000000 0.000000 0.000000 0.000000 0.000000 0.000000 0.000000 
2.554820 16.843780 8.383185 8.922414 3.856362 14.634102 -7.149311 2.220699 4.797958 -21.356880 -7.898050 -32.545087 -3.598716 0.312914 22.004977 0.127643 -0.322658 -3.929704 0.188201 -0.000000 -24.419100 13.346474 -3.616645 1.584487 1.180471 -4.043103 -15.000336 -0.809617 -3.521033 53.834817 0.148375 18.436567 19.562088 8.376200 0.000000 -63.003701 -7.818612 2.254489 -8.205201 -2.874359 2.783508 -4.472169 -7.110973 2.718150 0.881095 9.492229 -1.448808 -8.620315 -4.116040 -0.313327 -0.344361 0.000000 0.000000 0.000000 -4.304318 27.610330 1.377420 -55.206129 7.962236 -17.619801 -3.041852 -40.007542 0.011584 12.728935 0.441664 0.056303 -0.142714 -0.050475 0.000000 0.000000 0.000000 0.000000 0.000000 0.000000 0.000000 17.920930 8.102380 -1.450602 81.841288 19.689518 15.283889 2.015232 42.366210 0.000697 -1.617231 9.073968 -0.134969 0.043263 -0.321340 0.000000 0.000000 0.000000 0.000000 0.000000 0.000000 0.000000 
2.585507 16.848292 8.501354 9.125603 3.447097 14.378246 -7.165128 2.230794 4.697418 -21.696503 -7.706902 -31.787862 -3.589836 0.310353 22.240502 0.201420 -0.000302 -4.530310 0.181500 0.000000 -24.380301 13.379164 -3.486107 1.429803 0.804654 -4.457744 -16.321710 -0.991436 -3.668123 56.128719 0.009832 15.291993 18.546775 6.806100 0.000000 -63.817800 -7.778968 2.208916 -7.936978 -2.846876 2.733312 -4.418783 -7.064766 2.669043 0.867117 9.364881 -1.403975 -8.626250 -4.136524 -0.314047 -0.350265 0.000000 0.000000 0.000000 -4.415337 27.358065 1.383586 -55.357487 6.954720 -17.611321 -3.053992 -39.590550 0.010551 12.862106 0.458268 0.058185 -0.140147 -0.045574 0.000000 0.000000 0.000000 0.000000 0.000000 0.000000 0.000000 17.879995 8.040172 -1.408439 81.770929 19.313385 15.135134 2.024316 41.698701 0.000945 -1.552285 9.022053 -0.128818 0.042227 -0.314247 0.000000 0.000000 0.000000 0.000000 0.000000 0.000000 0.000000 
2.616670 16.854131 8.617601 9.290712 3.026780 14.131512 -7.196560 2.240240 4.588104 -21.998284 -7.439677 -31.062097 -3.577958 0.306275 22.431691 0.268872 0.303247 -5.045180 0.170800 -0.000000 -24.398900 13.392672 -3.351205 1.293248 0.489157 -4.787618 -17.651922 -1.156644 -3.813007 58.284887 -0.127322 12.150428 17.057279 5.233500 0.000000 -63.127100 -7.699276 2.162012 -7.681242 -2.811670 2.677339 -4.366868 -7.022201 2.614128 0.856582 9.253195 -1.375427 -8.630290 -4.158060 -0.314906 -0.355296 0.000000 0.000000 0.000000 -4.519469 27.082346 1.387836 -55.555559 5.954749 -17.582726 -3.059559 -39.239712 0.009459 12.997671 0.468523 0.059368 -0.137686 -0.040418 0.000000 0.000000 0.000000 0.000000 0.000000 0.000000 0.000000 17.861358 7.954792 -1.360179 81.653603 18.917106 14.943290 2.035037 41.035578 0.001183 -1.490543 8.961718 -0.122866 0.041288 -0.306876 0.000000 0.000000 0.000000 0.000000 0.000000 0.000000 0.000000 
